<svg width="32" height="32" viewBox="0 0 32 32" fill="none" xmlns="http://www.w3.org/2000/svg">
<rect width="32" height="32" rx="16" fill="#AFAFAF"/>
<path d="M16 17.666C16.8284 17.666 17.5 16.9944 17.5 16.166C17.5 15.3376 16.8284 14.666 16 14.666C15.1716 14.666 14.5 15.3376 14.5 16.166C14.5 16.9944 15.1716 17.666 16 17.666Z" fill="#F7F7F7"/>
<path d="M16 12.334C16.8284 12.334 17.5 11.6624 17.5 10.834C17.5 10.0056 16.8284 9.33398 16 9.33398C15.1716 9.33398 14.5 10.0056 14.5 10.834C14.5 11.6624 15.1716 12.334 16 12.334Z" fill="#F7F7F7"/>
<path d="M16 23C16.8284 23 17.5 22.3284 17.5 21.5C17.5 20.6716 16.8284 20 16 20C15.1716 20 14.5 20.6716 14.5 21.5C14.5 22.3284 15.1716 23 16 23Z" fill="#F7F7F7"/>
</svg>
