<svg width="30" height="38" viewBox="0 0 30 38" fill="none" xmlns="http://www.w3.org/2000/svg">
<path d="M20.5639 6.2584C21.9483 4.77629 22.8847 2.71857 22.6284 0.666666C20.6339 0.737844 18.2167 1.83744 16.785 3.31942C15.5017 4.63141 14.3781 6.72825 14.678 8.73989C16.9035 8.89045 19.1772 7.73811 20.5639 6.2584ZM24.8114 20.4289C24.7689 15.8288 28.4535 13.6193 28.6167 13.5126C26.5452 10.3887 23.3191 9.96127 22.1702 9.91306C19.4231 9.62469 16.8139 11.5766 15.4193 11.5766C14.0303 11.5766 11.8819 9.95092 9.60354 9.99459C6.6084 10.0439 3.84863 11.788 2.31036 14.5522C-0.801011 20.113 1.51289 28.3506 4.54475 32.8611C6.02686 35.0693 7.79154 37.5464 10.1088 37.4568C12.3458 37.3672 13.189 35.969 15.8879 35.969C18.5878 35.969 19.3438 37.4568 21.7059 37.412C24.1094 37.3672 25.6305 35.1613 27.1 32.9462C28.8003 30.3853 29.5012 27.906 29.5413 27.7808C29.4897 27.7509 24.8608 25.9299 24.8114 20.4289Z" fill="#C3C3C3"/>
</svg>
