<svg width="140" height="48" viewBox="0 0 140 48" fill="none" xmlns="http://www.w3.org/2000/svg">
<rect width="140" height="48" rx="24" fill="#FFFEFE"/>
<path d="M49.1079 26.0752C49.1079 25.7155 48.981 25.4404 48.7271 25.25C48.4731 25.0553 48.0161 24.8522 47.356 24.6406C46.6958 24.4248 46.1732 24.2132 45.7881 24.0059C44.7386 23.4388 44.2139 22.675 44.2139 21.7144C44.2139 21.215 44.3535 20.7707 44.6328 20.3813C44.9163 19.9878 45.3205 19.681 45.8452 19.4609C46.3742 19.2409 46.9666 19.1309 47.6226 19.1309C48.2827 19.1309 48.8709 19.2515 49.3872 19.4927C49.9035 19.7297 50.3034 20.0661 50.5869 20.502C50.8747 20.9378 51.0186 21.4329 51.0186 21.9873H49.1143C49.1143 21.5641 48.981 21.2362 48.7144 21.0034C48.4478 20.7664 48.0732 20.6479 47.5908 20.6479C47.1253 20.6479 46.7635 20.7474 46.5054 20.9463C46.2472 21.141 46.1182 21.3991 46.1182 21.7207C46.1182 22.0212 46.2684 22.2729 46.5688 22.4761C46.8735 22.6792 47.32 22.8696 47.9082 23.0474C48.9915 23.3732 49.7808 23.7773 50.2759 24.2598C50.771 24.7422 51.0186 25.3431 51.0186 26.0625C51.0186 26.8623 50.716 27.4907 50.1108 27.9478C49.5057 28.4006 48.6911 28.627 47.667 28.627C46.9561 28.627 46.3086 28.4979 45.7246 28.2397C45.1406 27.9774 44.6942 27.6198 44.3853 27.167C44.0806 26.7142 43.9282 26.1895 43.9282 25.5928H45.8389C45.8389 26.6126 46.4482 27.1226 47.667 27.1226C48.1198 27.1226 48.4731 27.0316 48.7271 26.8496C48.981 26.6634 49.1079 26.4053 49.1079 26.0752ZM54.8384 28.5H52.9341V19.2578H54.8384V28.5ZM64.4219 27.332C64.0791 27.7425 63.5946 28.062 62.9683 28.2905C62.342 28.5148 61.6479 28.627 60.8862 28.627C60.0864 28.627 59.384 28.4535 58.7788 28.1064C58.1779 27.7552 57.7124 27.2474 57.3823 26.583C57.0565 25.9186 56.8893 25.1379 56.8809 24.2407V23.6123C56.8809 22.6898 57.0353 21.8921 57.3442 21.2192C57.6574 20.5422 58.106 20.0259 58.6899 19.6704C59.2782 19.3107 59.9658 19.1309 60.7529 19.1309C61.849 19.1309 62.7059 19.3932 63.3237 19.918C63.9416 20.4385 64.3076 21.1981 64.4219 22.1968H62.5684C62.4837 21.6678 62.2954 21.2806 62.0034 21.0352C61.7157 20.7897 61.3179 20.667 60.8101 20.667C60.1626 20.667 59.6696 20.9103 59.3311 21.397C58.9925 21.8836 58.8211 22.6073 58.8169 23.5679V24.1582C58.8169 25.1273 59.001 25.8594 59.3691 26.3545C59.7373 26.8496 60.2769 27.0972 60.9878 27.0972C61.703 27.0972 62.2129 26.9448 62.5176 26.6401V25.0469H60.7847V23.644H64.4219V27.332ZM73.9863 28.5H72.082L68.375 22.4189V28.5H66.4707V19.2578H68.375L72.0884 25.3516V19.2578H73.9863V28.5ZM86.8818 19.2578V25.3452C86.8818 26.3566 86.5645 27.1564 85.9297 27.7446C85.2992 28.3328 84.4359 28.627 83.3398 28.627C82.2607 28.627 81.4038 28.3413 80.769 27.77C80.1343 27.1987 79.8105 26.4137 79.7979 25.415V19.2578H81.7021V25.3579C81.7021 25.9631 81.846 26.4053 82.1338 26.6846C82.4258 26.9596 82.8278 27.0972 83.3398 27.0972C84.4105 27.0972 84.9543 26.5343 84.9712 25.4087V19.2578H86.8818ZM90.8477 25.2437V28.5H88.9434V19.2578H92.5488C93.2428 19.2578 93.8522 19.3848 94.377 19.6387C94.9059 19.8926 95.3122 20.2544 95.5957 20.7241C95.8792 21.1896 96.021 21.7207 96.021 22.3174C96.021 23.223 95.71 23.9382 95.0879 24.4629C94.4701 24.9834 93.6131 25.2437 92.5171 25.2437H90.8477ZM90.8477 23.7012H92.5488C93.0524 23.7012 93.4354 23.5827 93.6978 23.3457C93.9644 23.1087 94.0977 22.7702 94.0977 22.3301C94.0977 21.8773 93.9644 21.5112 93.6978 21.2319C93.4312 20.9526 93.063 20.8088 92.5933 20.8003H90.8477V23.7012Z" fill="#373637"/>
</svg>
