<svg width="32" height="32" viewBox="0 0 32 32" fill="none" xmlns="http://www.w3.org/2000/svg">
<rect width="32" height="32" rx="16" fill="#373637"/>
<path d="M16 17.6667C16.8284 17.6667 17.5 16.9952 17.5 16.1667C17.5 15.3383 16.8284 14.6667 16 14.6667C15.1716 14.6667 14.5 15.3383 14.5 16.1667C14.5 16.9952 15.1716 17.6667 16 17.6667Z" fill="#F7F7F7"/>
<path d="M16 12.3333C16.8284 12.3333 17.5 11.6617 17.5 10.8333C17.5 10.0048 16.8284 9.33325 16 9.33325C15.1716 9.33325 14.5 10.0048 14.5 10.8333C14.5 11.6617 15.1716 12.3333 16 12.3333Z" fill="#F7F7F7"/>
<path d="M16 23C16.8284 23 17.5 22.3284 17.5 21.5C17.5 20.6716 16.8284 20 16 20C15.1716 20 14.5 20.6716 14.5 21.5C14.5 22.3284 15.1716 23 16 23Z" fill="#F7F7F7"/>
</svg>
