<svg width="48" height="48" viewBox="0 0 48 48" fill="none" xmlns="http://www.w3.org/2000/svg">
<path fill-rule="evenodd" clip-rule="evenodd" d="M48 24C48 37.2548 37.2548 48 24 48C10.7452 48 0 37.2548 0 24C0 10.7452 10.7452 0 24 0C37.2548 0 48 10.7452 48 24ZM24.876 24.9986V35.2H20.9025V24.9912H17.6001V20.9972H20.8955V18.0657C20.8955 14.6579 22.9087 12.8001 25.8403 12.8001C26.8289 12.7971 27.817 12.8497 28.8001 12.9577V16.5194H26.7798C25.1869 16.5194 24.876 17.3072 24.876 18.4615V21.0045H28.6871L28.1926 24.9986H24.876Z" fill="#AFAFAF"/>
</svg>
