<svg width="76" height="76" viewBox="0 0 76 76" fill="none" xmlns="http://www.w3.org/2000/svg">
<g filter="url(#filter0_d)">
<circle cx="38" cy="28" r="18" fill="#373637"/>
<circle cx="38" cy="28" r="16" stroke="#FFFEFE" stroke-width="4"/>
</g>
<path fill-rule="evenodd" clip-rule="evenodd" d="M30.0985 27.3066C30.1849 27.1869 30.3833 26.9939 30.3833 26.9939C31.0854 26.2448 32.8317 25.1165 33.7176 24.7542C33.7176 24.7466 34.2444 24.5318 34.495 24.5233H34.5283C34.9123 24.5233 35.2715 24.7382 35.4553 25.0837C35.5311 25.2261 35.6016 25.5725 35.6356 25.7397C35.6469 25.795 35.6542 25.8307 35.6563 25.8328C35.7316 26.3266 35.7812 27.0841 35.7812 27.9158C35.7812 28.7888 35.7316 29.5791 35.6392 30.0653C35.6392 30.0738 35.5477 30.5178 35.4887 30.6661C35.3972 30.8802 35.2296 31.0613 35.0209 31.1768C34.8542 31.2594 34.678 31.2998 34.495 31.2998C34.3026 31.2922 33.9434 31.1684 33.8014 31.1111C32.865 30.7487 31.0769 29.5631 30.3919 28.8385C30.3155 28.7632 30.2354 28.6775 30.1797 28.6179C30.15 28.5861 30.1273 28.5617 30.1157 28.5503C29.9737 28.3691 29.8984 28.1467 29.8984 27.9074C29.8984 27.6942 29.9651 27.4801 30.0985 27.3066ZM39.9995 25.0066C40.0919 24.7926 40.2586 24.6114 40.4673 24.496C40.6341 24.4134 40.8102 24.3729 40.9941 24.3729C41.1857 24.3805 41.5457 24.5044 41.6876 24.5625C42.6232 24.924 44.4114 26.1105 45.0973 26.8343C45.1719 26.9083 45.2503 26.9924 45.3058 27.0518C45.3368 27.0851 45.3607 27.1107 45.3727 27.1225C45.5146 27.3045 45.5899 27.5261 45.5899 27.7645C45.5899 27.9794 45.5232 28.1935 45.3889 28.3662C45.3034 28.4858 45.105 28.6788 45.105 28.6788C44.4037 29.4288 42.6566 30.5562 41.7706 30.9185C41.7706 30.927 41.2447 31.141 40.9941 31.1494H40.9607C40.5759 31.1494 40.2167 30.9354 40.0329 30.5891C39.9578 30.4469 39.8872 30.1016 39.8529 29.9341C39.8414 29.8782 39.834 29.8421 39.8319 29.84C39.7566 29.3462 39.707 28.5886 39.707 27.757C39.707 26.884 39.7566 26.0936 39.849 25.6074C39.849 25.5998 39.9405 25.1549 39.9995 25.0066Z" fill="#FFFEFE"/>
<defs>
<filter id="filter0_d" x="0" y="0" width="76" height="76" filterUnits="userSpaceOnUse" color-interpolation-filters="sRGB">
<feFlood flood-opacity="0" result="BackgroundImageFix"/>
<feColorMatrix in="SourceAlpha" type="matrix" values="0 0 0 0 0 0 0 0 0 0 0 0 0 0 0 0 0 0 127 0"/>
<feOffset dy="10"/>
<feGaussianBlur stdDeviation="10"/>
<feColorMatrix type="matrix" values="0 0 0 0 0 0 0 0 0 0 0 0 0 0 0 0 0 0 0.1 0"/>
<feBlend mode="normal" in2="BackgroundImageFix" result="effect1_dropShadow"/>
<feBlend mode="normal" in="SourceGraphic" in2="effect1_dropShadow" result="shape"/>
</filter>
</defs>
</svg>
