<svg width="48" height="48" viewBox="0 0 48 48" fill="none" xmlns="http://www.w3.org/2000/svg">
<path fill-rule="evenodd" clip-rule="evenodd" d="M48 24C48 37.2548 37.2548 48 24 48C10.7452 48 0 37.2548 0 24C0 10.7452 10.7452 0 24 0C37.2548 0 48 10.7452 48 24ZM13.1997 19.5018C13.1997 16.0278 16.0248 13.2001 19.4979 13.2001H28.4979C31.9719 13.2001 34.7997 16.0252 34.7997 19.4983V28.4983C34.7997 31.9723 31.9746 34.8001 28.5015 34.8001H19.5015C16.0275 34.8001 13.1997 31.9749 13.1997 28.5018V19.5018ZM31.1997 17.7001C31.1997 17.2033 30.7965 16.8001 30.2997 16.8001C29.8029 16.8001 29.3997 17.2033 29.3997 17.7001C29.3997 18.1969 29.8029 18.6001 30.2997 18.6001C30.7965 18.6001 31.1997 18.1969 31.1997 17.7001ZM29.3997 24.0001C29.3997 21.022 26.9778 18.6001 23.9997 18.6001C21.0216 18.6001 18.5997 21.022 18.5997 24.0001C18.5997 26.9782 21.0216 29.4001 23.9997 29.4001C26.9778 29.4001 29.3997 26.9782 29.3997 24.0001ZM21.4541 21.4545C22.1293 20.7794 23.0449 20.4001 23.9997 20.4001C24.9545 20.4001 25.8702 20.7794 26.5453 21.4545C27.2204 22.1296 27.5997 23.0453 27.5997 24.0001C27.5997 24.9549 27.2204 25.8705 26.5453 26.5457C25.8702 27.2208 24.9545 27.6001 23.9997 27.6001C23.0449 27.6001 22.1293 27.2208 21.4541 26.5457C20.779 25.8705 20.3997 24.9549 20.3997 24.0001C20.3997 23.0453 20.779 22.1296 21.4541 21.4545Z" fill="#AFAFAF"/>
</svg>
