<svg width="40" height="40" viewBox="0 0 40 40" fill="none" xmlns="http://www.w3.org/2000/svg">
<path d="M20.833 10.9034C20.833 18.7356 10.833 25.4489 10.833 25.4489C10.833 25.4489 0.833008 18.7356 0.833008 10.9034C0.833008 8.23272 1.88658 5.67139 3.76194 3.78291C5.6373 1.89443 8.18084 0.833498 10.833 0.833498C13.4852 0.833498 16.0287 1.89443 17.9041 3.78291C19.7794 5.67139 20.833 8.23272 20.833 10.9034Z" stroke="#373637" stroke-width="1.5" stroke-linecap="round" stroke-linejoin="round"/>
<circle cx="10.833" cy="11.0899" r="4.10256" stroke="#373637" stroke-width="1.5"/>
<path d="M39.1663 27.5468C39.1663 32.7682 32.4997 37.2438 32.4997 37.2438C32.4997 37.2438 25.833 32.7682 25.833 27.5468C25.833 25.7663 26.5354 24.0588 27.7856 22.7998C29.0359 21.5408 30.7316 20.8335 32.4997 20.8335C34.2678 20.8335 35.9635 21.5408 37.2137 22.7998C38.464 24.0588 39.1663 25.7663 39.1663 27.5468Z" stroke="#373637" stroke-width="1.5" stroke-linecap="round" stroke-linejoin="round"/>
<circle cx="32.4997" cy="27.6706" r="2.73504" stroke="#373637" stroke-width="1.5"/>
<path d="M32.5 37.2339H23C21.8954 37.2339 21 36.3385 21 35.2339L21 27.5001C21 26.3955 20.1046 25.5 19 25.5H11" stroke="#373637" stroke-width="1.5" stroke-linecap="round" stroke-dasharray="2 2"/>
</svg>
