<svg width="25" height="24" viewBox="0 0 25 24" fill="none" xmlns="http://www.w3.org/2000/svg">
<path d="M12.5 10.125L12.5 20.25" stroke="#F7F7F7" stroke-width="1.5" stroke-linecap="round" stroke-linejoin="round"/>
<path d="M12.5 3.75L12.5 6.375" stroke="#F7F7F7" stroke-width="1.5" stroke-linecap="round" stroke-linejoin="round"/>
<path d="M12.5 10.125C13.5355 10.125 14.375 9.28553 14.375 8.25C14.375 7.21447 13.5355 6.375 12.5 6.375C11.4645 6.375 10.625 7.21447 10.625 8.25C10.625 9.28553 11.4645 10.125 12.5 10.125Z" stroke="#F7F7F7" stroke-width="1.5" stroke-linecap="round" stroke-linejoin="round"/>
<path d="M19.25 17.625L19.2501 20.25" stroke="#F7F7F7" stroke-width="1.5" stroke-linecap="round" stroke-linejoin="round"/>
<path d="M19.2501 3.75L19.25 13.875" stroke="#F7F7F7" stroke-width="1.5" stroke-linecap="round" stroke-linejoin="round"/>
<path d="M19.25 17.625C20.2855 17.625 21.125 16.7855 21.125 15.75C21.125 14.7145 20.2855 13.875 19.25 13.875C18.2145 13.875 17.375 14.7145 17.375 15.75C17.375 16.7855 18.2145 17.625 19.25 17.625Z" stroke="#F7F7F7" stroke-width="1.5" stroke-linecap="round" stroke-linejoin="round"/>
<path d="M5.75007 14.625L5.75 20.25" stroke="#F7F7F7" stroke-width="1.5" stroke-linecap="round" stroke-linejoin="round"/>
<path d="M5.75 3.75L5.75007 10.875" stroke="#F7F7F7" stroke-width="1.5" stroke-linecap="round" stroke-linejoin="round"/>
<path d="M5.75 14.625C6.78553 14.625 7.625 13.7855 7.625 12.75C7.625 11.7145 6.78553 10.875 5.75 10.875C4.71447 10.875 3.875 11.7145 3.875 12.75C3.875 13.7855 4.71447 14.625 5.75 14.625Z" stroke="#F7F7F7" stroke-width="1.5" stroke-linecap="round" stroke-linejoin="round"/>
</svg>
