<svg width="318" height="48" viewBox="0 0 318 48" fill="none" xmlns="http://www.w3.org/2000/svg">
<path fill-rule="evenodd" clip-rule="evenodd" d="M84 0H94V47H84V0ZM80 4.70001H70V47H80V4.70001ZM56 9.39999H66V47H56V9.39999ZM52 14.1H42V47H52V14.1ZM28 18.8H38V47H28V18.8ZM24 23.5H14V47H24V23.5ZM10 28.2H0V47H10V28.2ZM210 28.2H220V47H210V28.2ZM206 23.5H196V47H206V23.5ZM140 23.5H150V47H140V23.5ZM164 14.1H154V47H164V14.1ZM178 0H168V47H178V0ZM182 0H192V47H182V0ZM108 9.39999H98V47H108V9.39999ZM112 18.8H122V47H112V18.8ZM136 4.70001H126V47H136V4.70001Z" fill="#F7F7F7"/>
<path fill-rule="evenodd" clip-rule="evenodd" d="M262 4.70001H252V47H262V4.70001ZM238 9.40005H248V47.0001H238V9.40005ZM224 14.1H234V47H224V14.1ZM266 10.3401H276V47.0001H266V10.3401ZM304 11H294V47.66H304V11ZM280 25.38H290V47H280V25.38ZM318 26.04H308V47.66H318V26.04Z" fill="#F7F7F7"/>
</svg>
