<svg width="48" height="48" viewBox="0 0 48 48" fill="none" xmlns="http://www.w3.org/2000/svg">
<path fill-rule="evenodd" clip-rule="evenodd" d="M48 24C48 37.2548 37.2548 48 24 48C10.7452 48 0 37.2548 0 24C0 10.7452 10.7452 0 24 0C37.2548 0 48 10.7452 48 24ZM33.165 17.3355C34.1565 17.2095 35.1075 16.95 36 16.5585C35.331 17.5545 34.5105 18.42 33.534 19.113C33.5445 19.3215 33.552 19.5315 33.552 19.749C33.552 26.25 28.602 33.75 19.548 33.75C16.7625 33.75 14.1795 32.9475 12 31.542C12.387 31.5915 12.774 31.6095 13.1775 31.6095C15.4785 31.6095 17.604 30.8205 19.278 29.511C17.127 29.4645 15.318 28.032 14.6805 26.0835C14.979 26.1495 15.297 26.1675 15.612 26.1675C16.065 26.1675 16.5015 26.115 16.902 26.0055C14.6655 25.548 12.96 23.562 12.96 21.171V21.117C13.617 21.4785 14.3925 21.708 15.183 21.723C13.875 20.8485 12.9975 19.338 12.9975 17.634C12.9975 16.7265 13.2465 15.8835 13.671 15.147C16.1025 18.1335 19.722 20.094 23.8125 20.2935C23.7315 19.9365 23.6985 19.5615 23.6985 19.1715C23.6985 16.461 25.8915 14.25 28.6155 14.25C30.0195 14.25 31.3065 14.8455 32.2095 15.807C33.3285 15.5835 34.3785 15.183 35.3295 14.616C34.9635 15.7695 34.185 16.7265 33.165 17.3355Z" fill="#AFAFAF"/>
</svg>
