<svg width="48" height="54" viewBox="0 0 48 54" fill="none" xmlns="http://www.w3.org/2000/svg">
<circle cx="24" cy="24" r="24" fill="#E6F2FF"/>
<mask id="mask0" mask-type="alpha" maskUnits="userSpaceOnUse" x="0" y="0" width="48" height="48">
<circle cx="24" cy="24" r="24" fill="#E6F2FF"/>
</mask>
<g mask="url(#mask0)">
<path d="M27.4406 31.6838C26.4163 31.6527 23.377 30.6829 22.7728 30.2353L27.4406 31.6838Z" fill="#FFE5D6"/>
<path d="M27.8621 36.464C29.752 39.1111 35.8627 39.8968 36.9053 40.2752C38.6153 40.9232 38.9061 42.6752 38.9314 43.6295C39.0045 46.3486 39.3235 51.0131 38.3694 53.478" fill="#FFE5D6"/>
<path d="M27.8621 36.464C26.7156 34.3972 27.4406 31.6838 27.4406 31.6838C27.4406 31.6838 29.6621 31.7897 30.5529 31.3337C32.2658 30.5953 34.3004 27.8946 34.2793 24.0278C34.2307 20.5456 33.4987 17.1072 32.1252 13.9097C30.8859 10.6894 23.1958 7.67956 17.4025 13.304C17.4025 13.304 14.2789 16.1727 16.0929 20.9403" fill="#FFE5D6"/>
<path d="M7.09167 53.478C6.26687 50.8225 6.59145 43.8399 6.71089 42.8545C6.83032 41.8691 7.2912 39.87 9.73188 39.2615C10.811 38.9891 17.5683 37.8913 18.9397 35.9869" fill="#FFE5D6"/>
<path d="M19.2713 28.7869C19.2713 28.7869 17.002 27.4923 16.0971 24.793C15.1923 22.0937 16.0929 20.9403 16.0929 20.9403C16.8194 19.8518 19.7097 19.585 19.7097 22.8687" fill="#FFE5D6"/>
<path d="M19.2713 28.7869C19.4441 32.2174 19.4877 33.7916 18.9397 35.9869L19.2713 28.7869Z" fill="#FFE5D6"/>
<path d="M27.8621 36.464C29.752 39.1111 35.8627 39.8968 36.9053 40.2752C38.6153 40.9232 38.9061 42.6752 38.9314 43.6295C39.0045 46.3486 39.3235 51.0131 38.3694 53.478H7.09167C6.26687 50.8225 6.59145 43.8399 6.71089 42.8545C6.83032 41.8691 7.2912 39.87 9.73188 39.2615C10.811 38.9891 17.5683 37.8913 18.9397 35.9869C19.4877 33.7916 19.4441 32.2174 19.2713 28.7869C19.2713 28.7869 17.002 27.4923 16.0971 24.793C15.1923 22.0937 16.0929 20.9403 16.0929 20.9403C14.2789 16.1727 17.4025 13.304 17.4025 13.304C23.1958 7.67956 30.8859 10.6894 32.1252 13.9097C33.4987 17.1072 34.2307 20.5456 34.2793 24.0278C34.3004 27.8946 32.2658 30.5953 30.5529 31.3337C29.6621 31.7897 27.4406 31.6838 27.4406 31.6838C27.4406 31.6838 26.7156 34.3972 27.8621 36.464Z" fill="#FFE5D6"/>
<path opacity="0.4" d="M27.4082 31.5749C27.2722 32.5357 27.0614 33.9474 27.4082 35.0768C26.1226 34.7705 22.4932 32.2497 22.4932 30.2026C24.0811 30.8258 25.7279 31.2856 27.4082 31.5749Z" fill="#F0C7AF"/>
<path d="M17.7491 21.7358C17.2012 21.8854 16.8274 22.717 17.263 23.6134" stroke="#050504" stroke-width="0.352941" stroke-linecap="round"/>
<path d="M6.82961 52.4188C6.0009 49.7633 6.32702 42.7807 6.44702 41.7953C6.56702 40.8099 7.03007 38.8108 9.48231 38.2024C10.4171 37.9675 15.5618 37.2299 17.8455 35.8106C18.0112 35.1016 18.0085 34.2347 17.8752 33.283C18.1557 33.8539 20.3817 34.2988 23.0859 34.2988C25.7995 34.2988 28.0314 33.8508 28.2994 33.2771C28.1236 34.2333 28.1131 35.1726 28.2925 36.1292C30.6212 38.2615 35.8252 38.8696 36.7844 39.216C38.5025 39.864 38.7947 41.616 38.8201 42.5704C38.8936 45.2894 39.214 49.9539 38.2554 52.4188H6.82961Z" fill="#EB8682"/>
<mask id="mask1" mask-type="alpha" maskUnits="userSpaceOnUse" x="6" y="33" width="33" height="20">
<path d="M18.1203 35.875C18.2562 35.2937 18.2838 34.6236 18.2274 33.9033C18.2569 33.9168 18.2871 33.9301 18.3179 33.943C18.6327 34.0753 19.0423 34.1889 19.5171 34.2822C20.4687 34.4692 21.7202 34.5814 23.0858 34.5814C24.4561 34.5814 25.7114 34.4684 26.6643 34.2803C27.1397 34.1864 27.5494 34.0721 27.8635 33.9389C27.8836 33.9304 27.9034 33.9217 27.9229 33.9129C27.8454 34.6678 27.8719 35.4191 28.0149 36.1814C28.0262 36.2415 28.0566 36.2963 28.1017 36.3376C29.3205 37.4536 31.2631 38.1524 32.9784 38.6151C33.8425 38.8482 34.6622 39.0247 35.3219 39.1638L35.4684 39.1947C36.0638 39.3201 36.486 39.4091 36.6865 39.4811C38.2266 40.0632 38.5128 41.6408 38.5378 42.5782C38.5474 42.9334 38.5611 43.3196 38.5755 43.7285L38.5756 43.7286C38.6169 44.8962 38.6649 46.2478 38.6424 47.5853C38.6134 49.3076 38.4672 50.9625 38.0584 52.1367H7.04159C6.68697 50.8199 6.5715 48.5774 6.56477 46.48C6.55773 44.2834 6.66928 42.305 6.72717 41.8296C6.78501 41.3547 6.92371 40.6558 7.32932 40.0074C7.72974 39.3673 8.39867 38.7623 9.55018 38.4766L9.551 38.4764C9.72412 38.4329 10.053 38.3705 10.4989 38.2859C10.6281 38.2614 10.7672 38.235 10.9152 38.2066C11.5659 38.082 12.3721 37.9227 13.2217 37.7259C14.9086 37.3351 16.8083 36.7877 17.9944 36.0505C18.058 36.011 18.1032 35.9479 18.1203 35.875Z" fill="#EB8682"/>
</mask>
<g mask="url(#mask1)">
<path d="M6.42289 31.1946C6.42289 31.1946 16.4891 35.7868 22.9405 35.7829C29.1715 35.7791 38.8935 31.1946 38.8935 31.1946V33.1711C38.8935 33.1711 29.1711 37.4036 22.9405 37.4064C16.4895 37.4093 6.42289 33.3123 6.42289 33.3123V31.1946Z" fill="white"/>
<path d="M6.42285 35.4299C6.42285 35.4299 16.489 38.6103 22.9405 38.6064C29.1715 38.6026 38.8934 35.4299 38.8934 35.4299V37.4064C38.8934 37.4064 29.1711 40.2271 22.9405 40.2299C16.4894 40.2329 6.42285 37.5476 6.42285 37.5476V35.4299Z" fill="white"/>
<path d="M6.42285 38.2535C6.42285 38.2535 16.489 41.4338 22.9405 41.4299C29.1715 41.4262 38.8934 38.2535 38.8934 38.2535V40.2299C38.8934 40.2299 29.1711 43.0506 22.9405 43.0535C16.4894 43.0564 6.42285 40.3711 6.42285 40.3711V38.2535Z" fill="white"/>
<path d="M6.42285 41.2182C6.42285 41.2182 16.489 44.3985 22.9405 44.3946C29.1715 44.3909 38.8934 41.2182 38.8934 41.2182V43.1946C38.8934 43.1946 29.1711 46.0153 22.9405 46.0182C16.4894 46.0211 6.42285 43.3358 6.42285 43.3358V41.2182Z" fill="white"/>
<path d="M6.42285 44.6064C6.42285 44.6064 16.489 47.2221 22.9405 47.2182C29.1715 47.2144 38.8934 44.7476 38.8934 44.7476V46.7241C38.8934 46.7241 29.1711 48.8389 22.9405 48.8417C16.4894 48.8446 6.42285 46.7241 6.42285 46.7241V44.6064Z" fill="white"/>
<path d="M6.42285 47.9946C6.42285 47.9946 16.489 49.7633 22.9405 49.7593C29.1715 49.7556 38.8934 47.9946 38.8934 47.9946V49.9711C38.8934 49.9711 29.1711 51.3801 22.9405 51.3829C16.4894 51.3858 6.42285 50.1123 6.42285 50.1123V47.9946Z" fill="white"/>
</g>
<path d="M18.9882 33.665L19.1576 32.465C18.8047 32.4885 18 32.832 18 33.1708C18 33.5097 18.6588 33.6414 18.9882 33.665Z" fill="#050504"/>
<path d="M27.0353 33.7356L27.2471 32.465C27.6 32.4885 28.2353 32.832 28.2353 33.1708C28.2353 33.5097 27.3647 33.712 27.0353 33.7356Z" fill="#050504"/>
<path d="M32.7201 15.8617C31.3172 16.6648 25.9421 17.2071 24.3193 17.0222C23.5598 16.9353 22.0914 16.7931 21.2035 16.6938C21.1763 16.6949 21.15 16.7043 21.128 16.7206C21.106 16.737 21.0894 16.7596 21.0803 16.7856C21.0712 16.8116 21.07 16.8397 21.0769 16.8664C21.0837 16.8931 21.0984 16.9171 21.1189 16.9353C24.9122 19.4647 20.0343 25.3086 19.7802 22.0672C19.2857 19.4012 16.9786 20.3671 16.7054 20.5341C16.3763 20.742 16.1006 21.0258 15.9008 21.362C15.6536 21.7608 15.5238 23.8928 16.7915 26.0758C16.8061 26.1035 16.811 26.1354 16.8053 26.1663C16.7996 26.1971 16.7836 26.2251 16.76 26.2455L16.3038 26.6071C16.2892 26.6177 16.2727 26.6254 16.2551 26.6296C16.2376 26.6337 16.2194 26.6344 16.2017 26.6314C16.1839 26.6285 16.1669 26.622 16.1516 26.6124C16.1363 26.6027 16.123 26.5902 16.1126 26.5753C10.0026 17.1574 14.3887 15.2421 15.0444 15.0186C15.0674 15.0095 15.0875 14.9944 15.1027 14.9747C15.1178 14.955 15.1274 14.9316 15.1304 14.9068C15.3886 12.2698 17.0237 9.22985 20.7063 8.64891C22.6843 8.31635 24.6758 8.67237 25.8629 9.14568H25.8724C27.319 9.61761 28.42 8.78552 29.7122 7.53118C29.73 7.51399 29.751 7.50066 29.7741 7.492C29.7971 7.48335 29.8217 7.47954 29.8463 7.48084C29.8708 7.48213 29.8949 7.48849 29.9169 7.49952C29.939 7.51055 29.9586 7.52602 29.9745 7.54498C30.5331 8.217 30.5044 8.69445 30.3091 9.10704C30.3007 9.13053 30.2988 9.15588 30.3036 9.18038C30.3083 9.20489 30.3196 9.22763 30.3361 9.24618C30.3527 9.26473 30.3739 9.2784 30.3975 9.28573C30.4211 9.29307 30.4463 9.29378 30.4703 9.28781C31.6437 8.85452 34.2144 9.36922 35.1952 8.67237C35.2139 8.66085 35.235 8.65404 35.2569 8.6525C35.2787 8.65096 35.3006 8.65475 35.3207 8.66354C35.3408 8.67233 35.3584 8.68587 35.3723 8.70302C35.3861 8.72017 35.3956 8.74041 35.4001 8.76206C35.8112 11.9759 34.6556 14.7854 32.7201 15.8617Z" fill="#15161F" stroke="#15161F" stroke-width="0.352941" stroke-linecap="round" stroke-linejoin="bevel"/>
<path d="M28.3395 21.3573L28.5061 21.4153L28.5159 21.3871V21.3573H28.3395ZM28.163 21.4717C28.163 21.5691 28.242 21.6481 28.3395 21.6481C28.4369 21.6481 28.5159 21.5691 28.5159 21.4717H28.163ZM30.3367 21.2387C30.3367 21.3362 30.4157 21.4152 30.5132 21.4152C30.6106 21.4152 30.6896 21.3362 30.6896 21.2387H30.3367ZM24.0162 21.5256C24.1092 21.5549 24.2083 21.5033 24.2376 21.4104C24.2669 21.3175 24.2154 21.2183 24.1224 21.189L24.0162 21.5256ZM16.5042 20.2519L16.58 20.4114L16.5857 20.4084L16.5042 20.2519ZM15.2066 22.4964C15.2244 22.5922 15.3165 22.6554 15.4124 22.6376C15.5082 22.6198 15.5714 22.5277 15.5536 22.4319L15.2066 22.4964ZM28.3395 21.3573C28.1728 21.2993 28.1728 21.2992 28.1728 21.2992C28.1728 21.2992 28.1728 21.2992 28.1728 21.2992C28.1728 21.2993 28.1728 21.2993 28.1727 21.2994C28.1727 21.2996 28.1726 21.3 28.1724 21.3005C28.172 21.3014 28.1715 21.303 28.1707 21.3051C28.1692 21.3094 28.1669 21.3159 28.1637 21.3245C28.1575 21.3417 28.148 21.3672 28.1353 21.4C28.1101 21.4655 28.0725 21.5597 28.0233 21.6728C27.9248 21.8996 27.7811 22.2006 27.5993 22.5004C27.4169 22.8014 27.2005 23.0937 26.9589 23.3089C26.7169 23.5245 26.4643 23.65 26.2051 23.65V24.003C26.5831 24.003 26.916 23.8198 27.1937 23.5724C27.4718 23.3247 27.7094 22.9997 27.9011 22.6834C28.0937 22.3658 28.2445 22.0496 28.3471 21.8134C28.3984 21.6951 28.4379 21.5963 28.4647 21.5268C28.4781 21.4921 28.4883 21.4646 28.4952 21.4456C28.4987 21.4361 28.5014 21.4287 28.5032 21.4237C28.5041 21.4211 28.5048 21.4191 28.5053 21.4177C28.5055 21.417 28.5057 21.4165 28.5058 21.4161C28.5059 21.4159 28.506 21.4157 28.506 21.4156C28.506 21.4155 28.5061 21.4155 28.5061 21.4154C28.5061 21.4154 28.5061 21.4153 28.3395 21.3573ZM26.2051 23.65C25.056 23.65 24.2472 22.6541 24.2472 21.3573H23.8943C23.8943 22.7879 24.805 24.0029 26.2051 24.003V23.65ZM24.2472 21.3573C24.2472 20.0661 25.147 19.0646 26.2051 19.0646V18.7117C24.9056 18.7117 23.8943 19.9212 23.8943 21.3573H24.2472ZM26.2051 19.0646C27.2631 19.0646 28.163 20.0661 28.163 21.3573H28.5159C28.5159 19.9212 27.5046 18.7117 26.2051 18.7117V19.0646ZM34.5857 20.8801C34.5857 22.1714 33.6859 23.1728 32.6279 23.1728V23.5258C33.9274 23.5258 34.9387 22.3163 34.9387 20.8801H34.5857ZM32.6279 23.1728C31.5698 23.1728 30.67 22.1714 30.67 20.8801H30.317C30.317 22.3163 31.3284 23.5258 32.6279 23.5258V23.1728ZM30.67 20.8801C30.67 19.5889 31.5698 18.5874 32.6279 18.5874V18.2345C31.3284 18.2345 30.317 19.444 30.317 20.8801H30.67ZM32.6279 18.5874C33.6859 18.5874 34.5857 19.5889 34.5857 20.8801H34.9387C34.9387 19.444 33.9274 18.2345 32.6279 18.2345V18.5874ZM28.5159 21.4717C28.5159 21.3007 28.6061 21.1633 28.7738 21.0567C28.9454 20.9475 29.1857 20.8811 29.437 20.8659C29.6884 20.8506 29.9298 20.8878 30.1008 20.9652C30.273 21.0431 30.3367 21.1405 30.3367 21.2387H30.6896C30.6896 20.9438 30.4816 20.7501 30.2463 20.6436C30.0096 20.5365 29.7076 20.4958 29.4156 20.5136C29.1234 20.5313 28.8203 20.6088 28.5844 20.7589C28.3446 20.9114 28.163 21.1485 28.163 21.4717H28.5159ZM24.0693 21.3573C24.1224 21.189 24.1224 21.189 24.1223 21.189C24.1223 21.189 24.1222 21.1889 24.1221 21.1889C24.1219 21.1888 24.1216 21.1887 24.1212 21.1886C24.1204 21.1884 24.1193 21.188 24.1178 21.1876C24.1148 21.1866 24.1104 21.1852 24.1045 21.1834C24.0929 21.1798 24.0757 21.1744 24.0532 21.1675C24.0083 21.1536 23.9423 21.1335 23.8579 21.1081C23.6891 21.0574 23.4465 20.9858 23.1507 20.9025C22.5592 20.736 21.7538 20.5221 20.8998 20.3332C20.0466 20.1444 19.1402 19.9795 18.3479 19.9123C17.9518 19.8787 17.5801 19.8691 17.2557 19.8944C16.9339 19.9195 16.6448 19.9798 16.4228 20.0953L16.5857 20.4084C16.7469 20.3246 16.9816 20.2698 17.2831 20.2463C17.582 20.223 17.9331 20.2313 18.3181 20.2639C19.0879 20.3292 19.977 20.4905 20.8235 20.6778C21.6691 20.8649 22.4676 21.0769 23.055 21.2423C23.3486 21.3249 23.5893 21.3959 23.7563 21.4461C23.8399 21.4712 23.905 21.4911 23.9492 21.5048C23.9713 21.5116 23.9881 21.5168 23.9994 21.5203C24.005 21.5221 24.0093 21.5234 24.0121 21.5243C24.0135 21.5247 24.0146 21.5251 24.0153 21.5253C24.0156 21.5254 24.0159 21.5255 24.016 21.5255C24.0161 21.5256 24.0162 21.5256 24.0162 21.5256C24.0162 21.5256 24.0162 21.5256 24.0693 21.3573ZM16.4284 20.0925C15.9889 20.3016 15.6308 20.6508 15.4098 21.0857L15.7244 21.2456C15.9102 20.88 16.2111 20.5867 16.58 20.4113L16.4284 20.0925ZM15.4098 21.0857C15.1888 21.5205 15.1174 22.0165 15.2066 22.4964L15.5536 22.4319C15.4786 22.0283 15.5387 21.6111 15.7244 21.2456L15.4098 21.0857Z" fill="#050504"/>
<path d="M29.6492 22.0971C29.6101 22.0078 29.506 21.9671 29.4168 22.0063C29.3275 22.0454 29.2868 22.1494 29.3259 22.2387L29.6492 22.0971ZM29.7584 25.7579C29.6694 25.7976 29.6295 25.902 29.6693 25.991C29.7091 26.08 29.8135 26.1198 29.9024 26.0801L29.7584 25.7579ZM23.1463 18.9977C23.0835 19.0723 23.093 19.1836 23.1676 19.2464C23.2421 19.3092 23.3534 19.2996 23.4162 19.2251L23.1463 18.9977ZM26.357 17.7844L26.3868 17.6104L26.3856 17.6102L26.357 17.7844ZM26.7579 18.074C26.8492 18.1079 26.9508 18.0614 26.9848 17.97C27.0187 17.8787 26.9721 17.7771 26.8808 17.7432L26.7579 18.074ZM29.9951 18.0989C29.9233 18.1647 29.9183 18.2763 29.9841 18.3482C30.05 18.4201 30.1616 18.425 30.2335 18.3592L29.9951 18.0989ZM32.9583 17.5613L33.0325 17.4012L33.0323 17.4011L32.9583 17.5613ZM33.2215 17.9238C33.2993 17.9825 33.41 17.967 33.4687 17.8892C33.5274 17.8114 33.5119 17.7008 33.4341 17.6421L33.2215 17.9238ZM29.4876 22.1679C29.3259 22.2387 29.3259 22.2387 29.3259 22.2387C29.3259 22.2387 29.326 22.2388 29.326 22.2388C29.326 22.2389 29.3261 22.239 29.3261 22.2392C29.3263 22.2395 29.3265 22.24 29.3268 22.2406C29.3273 22.2419 29.3282 22.2439 29.3293 22.2464C29.3316 22.2516 29.3349 22.2593 29.3393 22.2693C29.348 22.2893 29.3609 22.3188 29.3772 22.3564C29.4099 22.4316 29.4566 22.5395 29.5127 22.67C29.6249 22.931 29.7744 23.2821 29.9238 23.6429C30.0734 24.0041 30.2223 24.3735 30.3335 24.6715C30.3892 24.8208 30.4348 24.9501 30.4662 25.0507C30.4819 25.1011 30.4934 25.1423 30.5009 25.174C30.5091 25.2092 30.5097 25.2218 30.5097 25.2201H30.8626C30.8626 25.1789 30.8538 25.1331 30.8445 25.0934C30.8344 25.0503 30.8201 25.0003 30.8031 24.9456C30.7689 24.8361 30.7208 24.6998 30.6642 24.5481C30.5507 24.2442 30.4 23.8703 30.2499 23.5079C30.0997 23.1452 29.9495 22.7925 29.837 22.5307C29.7807 22.3997 29.7338 22.2914 29.7009 22.2157C29.6845 22.1779 29.6716 22.1483 29.6628 22.1281C29.6584 22.118 29.655 22.1103 29.6527 22.1051C29.6516 22.1024 29.6507 22.1005 29.6501 22.0991C29.6498 22.0985 29.6496 22.0979 29.6494 22.0976C29.6494 22.0974 29.6493 22.0973 29.6493 22.0972C29.6492 22.0972 29.6492 22.0971 29.6492 22.0971C29.6492 22.0971 29.6492 22.0971 29.4876 22.1679ZM30.5097 25.2201C30.5097 25.2197 30.5097 25.2299 30.4963 25.253C30.4831 25.2761 30.4608 25.3047 30.4275 25.338C30.3607 25.405 30.2662 25.4744 30.164 25.5389C30.0631 25.6027 29.9613 25.6577 29.8841 25.6969C29.8457 25.7165 29.8138 25.7319 29.7917 25.7424C29.7806 25.7476 29.772 25.7516 29.7664 25.7542C29.7635 25.7555 29.7614 25.7565 29.76 25.7571C29.7594 25.7574 29.7589 25.7576 29.7586 25.7577C29.7585 25.7578 29.7584 25.7579 29.7583 25.7579C29.7583 25.7579 29.7583 25.7579 29.7583 25.7579C29.7583 25.7579 29.7583 25.7579 29.7583 25.7579C29.7584 25.7579 29.7584 25.7579 29.8304 25.919C29.9024 26.0801 29.9025 26.08 29.9025 26.08C29.9025 26.08 29.9025 26.08 29.9026 26.08C29.9026 26.08 29.9027 26.0799 29.9028 26.0799C29.903 26.0798 29.9032 26.0797 29.9035 26.0796C29.904 26.0794 29.9047 26.079 29.9057 26.0786C29.9076 26.0777 29.9103 26.0765 29.9137 26.0749C29.9205 26.0718 29.9303 26.0672 29.9427 26.0614C29.9674 26.0497 30.0023 26.0328 30.0441 26.0115C30.1274 25.9692 30.2395 25.9088 30.3525 25.8373C30.4643 25.7667 30.5837 25.6812 30.6773 25.5874C30.7638 25.5008 30.8626 25.3736 30.8626 25.2201H30.5097ZM23.4162 19.2251C24.1926 18.3034 25.3108 17.7918 26.3285 17.9585L26.3856 17.6102C25.2141 17.4183 23.9801 18.0079 23.1463 18.9977L23.4162 19.2251ZM26.3273 17.9583C26.4741 17.9834 26.6182 18.0221 26.7579 18.074L26.8808 17.7432C26.7205 17.6837 26.5552 17.6392 26.3868 17.6104L26.3273 17.9583ZM30.2335 18.3592C31.0545 17.6076 32.0745 17.3473 32.8842 17.7215L33.0323 17.4011C32.0519 16.948 30.8827 17.2863 29.9951 18.0989L30.2335 18.3592ZM32.884 17.7214C33.0033 17.7767 33.1164 17.8446 33.2215 17.9238L33.4341 17.6421C33.3091 17.5478 33.1744 17.467 33.0325 17.4012L32.884 17.7214Z" fill="#050504"/>
<path d="M27.0752 27.5399C27.4942 28.5197 28.9438 28.7551 29.6044 28.644" stroke="#050504" stroke-width="0.352941" stroke-miterlimit="10" stroke-linecap="round"/>
<path d="M26.2993 22.758C26.737 22.758 27.0918 22.2713 27.0918 21.6709C27.0918 21.0706 26.737 20.5839 26.2993 20.5839C25.8616 20.5839 25.5068 21.0706 25.5068 21.6709C25.5068 22.2713 25.8616 22.758 26.2993 22.758Z" fill="#050504"/>
<path d="M26.8205 21.2782C26.6083 20.4706 25.5475 20.345 24.7803 21.017" stroke="#050504" stroke-width="0.352941" stroke-linecap="round"/>
<path d="M32.4985 22.3654C32.9362 22.3654 33.291 21.8787 33.291 21.2783C33.291 20.678 32.9362 20.1913 32.4985 20.1913C32.0609 20.1913 31.7061 20.678 31.7061 21.2783C31.7061 21.8787 32.0609 22.3654 32.4985 22.3654Z" fill="#050504"/>
<path d="M33.0197 20.8857C32.8075 20.0782 31.7467 19.9525 30.9795 20.6245" stroke="#050504" stroke-width="0.352941" stroke-linecap="round"/>
</g>
</svg>
