<svg width="48" height="48" viewBox="0 0 48 48" fill="none" xmlns="http://www.w3.org/2000/svg">
<path fill-rule="evenodd" clip-rule="evenodd" d="M48 24C48 37.2548 37.2548 48 24 48C10.7452 48 0 37.2548 0 24C0 10.7452 10.7452 0 24 0C37.2548 0 48 10.7452 48 24ZM32.7641 16.4892C33.7236 16.7528 34.4802 17.5246 34.7383 18.5036C35.2182 20.2917 35.1997 24.0188 35.1997 24.0188C35.1997 24.0188 35.1997 27.7269 34.7386 29.5152C34.4802 30.494 33.7237 31.2657 32.7641 31.5292C31.0112 31.9999 23.9998 31.9999 23.9998 31.9999C23.9998 31.9999 17.0066 31.9999 15.2355 31.5105C14.2758 31.2469 13.5195 30.4752 13.2611 29.4963C12.7998 27.7269 12.7998 23.9999 12.7998 23.9999C12.7998 23.9999 12.7998 20.2917 13.2611 18.5036C13.5192 17.5247 14.2943 16.734 15.2353 16.4707C16.9882 15.9999 23.9996 15.9999 23.9996 15.9999C23.9996 15.9999 31.0112 15.9999 32.7641 16.4892ZM21.7672 26.9016C21.7672 27.1335 22.0192 27.2777 22.2192 27.1602L27.1575 24.2586C27.3549 24.1426 27.3549 23.8572 27.1575 23.7413L22.2192 20.8397C22.0192 20.7222 21.7672 20.8664 21.7672 21.0983V26.9016Z" fill="#AFAFAF"/>
</svg>
